<?xml version="1.0" encoding="UTF-8" standalone="no"?>
<!DOCTYPE svg PUBLIC "-//W3C//DTD SVG 1.1//EN"
 "http://www.w3.org/Graphics/SVG/1.1/DTD/svg11.dtd">
<!-- Generated by graphviz version 2.38.0 (20140413.2041)
 -->
<!-- Title: finite_state_machine Pages: 1 -->
<svg width="307pt" height="209pt"
 viewBox="0.00 0.00 306.80 209.00" xmlns="http://www.w3.org/2000/svg" xmlns:xlink="http://www.w3.org/1999/xlink">
<g id="graph0" class="graph" transform="scale(1 1) rotate(0) translate(4 205.005)">
<title>finite_state_machine</title>
<polygon fill="white" stroke="none" points="-4,4 -4,-205.005 302.8,-205.005 302.8,4 -4,4"/>
<!-- 2 -->
<g id="node1" class="node"><title>2</title>
<ellipse fill="none" stroke="black" cx="261.604" cy="-142.196" rx="33.3713" ry="33.3713"/>
<ellipse fill="none" stroke="black" cx="261.604" cy="-142.196" rx="37.3924" ry="37.3924"/>
<text text-anchor="start" x="243.328" y="-138.996" font-family="Times,serif" font-size="14.00">2:T</text>
<text text-anchor="start" x="262.769" y="-138.996" font-family="Times,serif" baseline-shift="super" font-size="14.00">k</text>
<text text-anchor="start" x="269.769" y="-138.996" font-family="Times,serif" font-size="14.00">H</text>
</g>
<!-- 4 -->
<g id="node2" class="node"><title>4</title>
<ellipse fill="none" stroke="black" cx="261.604" cy="-37.1957" rx="33.3713" ry="33.3713"/>
<ellipse fill="none" stroke="black" cx="261.604" cy="-37.1957" rx="37.3924" ry="37.3924"/>
<text text-anchor="start" x="243.328" y="-33.9957" font-family="Times,serif" font-size="14.00">4:H</text>
<text text-anchor="start" x="264.328" y="-33.9957" font-family="Times,serif" baseline-shift="super" font-size="14.00">k</text>
<text text-anchor="start" x="271.328" y="-33.9957" font-family="Times,serif" font-size="14.00">T</text>
</g>
<!-- 0 -->
<g id="node3" class="node"><title>0</title>
<ellipse fill="none" stroke="black" cx="58.6" cy="-72.1957" rx="18" ry="18"/>
<text text-anchor="start" x="55.1" y="-67.9957" font-family="Times,serif" font-size="14.00">0</text>
</g>
<!-- 1 -->
<g id="node4" class="node"><title>1</title>
<ellipse fill="none" stroke="black" cx="150.504" cy="-142.196" rx="26.6198" ry="26.6198"/>
<text text-anchor="start" x="137.283" y="-138.996" font-family="Times,serif" font-size="14.00">1:T</text>
<text text-anchor="start" x="156.725" y="-138.996" font-family="Times,serif" baseline-shift="super" font-size="14.00">k</text>
</g>
<!-- 0&#45;&gt;1 -->
<g id="edge2" class="edge"><title>0&#45;&gt;1</title>
<path fill="none" stroke="black" d="M73.2545,-82.8272C85.8036,-92.598 104.813,-107.399 120.712,-119.778"/>
<polygon fill="black" stroke="black" points="118.651,-122.609 128.691,-125.991 122.951,-117.085 118.651,-122.609"/>
<text text-anchor="middle" x="99.6552" y="-109.996" font-family="Times,serif" font-size="14.00">T</text>
</g>
<!-- 3 -->
<g id="node5" class="node"><title>3</title>
<ellipse fill="none" stroke="black" cx="150.504" cy="-37.1957" rx="27.589" ry="27.589"/>
<text text-anchor="start" x="136.504" y="-33.9957" font-family="Times,serif" font-size="14.00">3:H</text>
<text text-anchor="start" x="157.504" y="-33.9957" font-family="Times,serif" baseline-shift="super" font-size="14.00">k</text>
</g>
<!-- 0&#45;&gt;3 -->
<g id="edge5" class="edge"><title>0&#45;&gt;3</title>
<path fill="none" stroke="black" d="M75.6731,-65.9384C86.5652,-61.698 101.38,-55.9305 114.881,-50.6745"/>
<polygon fill="black" stroke="black" points="116.356,-53.8564 124.405,-46.967 113.816,-47.3333 116.356,-53.8564"/>
<text text-anchor="middle" x="99.6552" y="-60.9957" font-family="Times,serif" font-size="14.00">H</text>
</g>
<!-- 1&#45;&gt;2 -->
<g id="edge4" class="edge"><title>1&#45;&gt;2</title>
<path fill="none" stroke="black" d="M177.359,-142.196C188.288,-142.196 201.365,-142.196 213.88,-142.196"/>
<polygon fill="black" stroke="black" points="214.202,-145.696 224.202,-142.196 214.202,-138.696 214.202,-145.696"/>
<text text-anchor="middle" x="201.353" y="-144.996" font-family="Times,serif" font-size="14.00">H</text>
</g>
<!-- 1&#45;&gt;1 -->
<g id="edge3" class="edge"><title>1&#45;&gt;1</title>
<path fill="none" stroke="black" d="M141.212,-167.531C140.571,-178.071 143.668,-187.005 150.504,-187.005 154.99,-187.005 157.866,-183.157 159.132,-177.533"/>
<polygon fill="black" stroke="black" points="162.626,-177.741 159.797,-167.531 155.642,-177.277 162.626,-177.741"/>
<text text-anchor="middle" x="150.504" y="-189.805" font-family="Times,serif" font-size="14.00">T</text>
</g>
<!-- 3&#45;&gt;4 -->
<g id="edge7" class="edge"><title>3&#45;&gt;4</title>
<path fill="none" stroke="black" d="M178.473,-37.1957C189.219,-37.1957 201.904,-37.1957 214.049,-37.1957"/>
<polygon fill="black" stroke="black" points="214.069,-40.6958 224.069,-37.1957 214.069,-33.6958 214.069,-40.6958"/>
<text text-anchor="middle" x="201.353" y="-39.9957" font-family="Times,serif" font-size="14.00">T</text>
</g>
<!-- 3&#45;&gt;3 -->
<g id="edge6" class="edge"><title>3&#45;&gt;3</title>
<path fill="none" stroke="black" d="M141.186,-63.5486C140.66,-74.118 143.766,-82.9894 150.504,-82.9894 154.926,-82.9894 157.784,-79.1688 159.077,-73.555"/>
<polygon fill="black" stroke="black" points="162.57,-73.7808 159.822,-63.5486 155.589,-73.2612 162.57,-73.7808"/>
<text text-anchor="middle" x="150.504" y="-85.7894" font-family="Times,serif" font-size="14.00">H</text>
</g>
<!-- qi -->
<g id="node6" class="node"><title>qi</title>
<ellipse fill="black" stroke="black" cx="1.8" cy="-72.1957" rx="1.8" ry="1.8"/>
</g>
<!-- qi&#45;&gt;0 -->
<g id="edge1" class="edge"><title>qi&#45;&gt;0</title>
<path fill="none" stroke="black" d="M3.75116,-72.1957C7.11489,-72.1957 18.875,-72.1957 30.5503,-72.1957"/>
<polygon fill="black" stroke="black" points="30.5754,-75.6958 40.5754,-72.1957 30.5753,-68.6958 30.5754,-75.6958"/>
</g>
</g>
</svg>
