<?xml version="1.0" encoding="UTF-8" standalone="no"?>
<!DOCTYPE svg PUBLIC "-//W3C//DTD SVG 1.1//EN"
 "http://www.w3.org/Graphics/SVG/1.1/DTD/svg11.dtd">
<!-- Generated by graphviz version 2.40.1 (20161225.0304)
 -->
<!-- Title: finite_state_machine Pages: 1 -->
<svg width="307pt" height="209pt"
 viewBox="0.00 0.00 306.80 209.00" xmlns="http://www.w3.org/2000/svg" xmlns:xlink="http://www.w3.org/1999/xlink">
<g id="graph0" class="graph" transform="scale(1 1) rotate(0) translate(4 205.0049)">
<title>finite_state_machine</title>
<polygon fill="#ffffff" stroke="transparent" points="-4,4 -4,-205.0049 302.7996,-205.0049 302.7996,4 -4,4"/>
<!-- 2 -->
<g id="node1" class="node">
<title>2</title>
<ellipse fill="none" stroke="#000000" cx="261.6039" cy="-142.1957" rx="33.3713" ry="33.3713"/>
<ellipse fill="none" stroke="#000000" cx="261.6039" cy="-142.1957" rx="37.3924" ry="37.3924"/>
<text text-anchor="start" x="243.328" y="-138.9957" font-family="Times,serif" font-size="14.00" fill="#000000">2:T</text>
<text text-anchor="start" x="262.7694" y="-138.9957" font-family="Times,serif" baseline-shift="super" font-size="14.00" fill="#000000">k</text>
<text text-anchor="start" x="269.7694" y="-138.9957" font-family="Times,serif" font-size="14.00" fill="#000000">H</text>
</g>
<!-- 4 -->
<g id="node2" class="node">
<title>4</title>
<ellipse fill="none" stroke="#000000" cx="261.6039" cy="-37.1957" rx="33.3713" ry="33.3713"/>
<ellipse fill="none" stroke="#000000" cx="261.6039" cy="-37.1957" rx="37.3924" ry="37.3924"/>
<text text-anchor="start" x="243.328" y="-33.9957" font-family="Times,serif" font-size="14.00" fill="#000000">4:H</text>
<text text-anchor="start" x="264.328" y="-33.9957" font-family="Times,serif" baseline-shift="super" font-size="14.00" fill="#000000">k</text>
<text text-anchor="start" x="271.328" y="-33.9957" font-family="Times,serif" font-size="14.00" fill="#000000">T</text>
</g>
<!-- 0 -->
<g id="node3" class="node">
<title>0</title>
<ellipse fill="none" stroke="#000000" cx="58.6" cy="-89.1957" rx="18" ry="18"/>
<text text-anchor="start" x="55.1" y="-84.9957" font-family="Times,serif" font-size="14.00" fill="#000000">0</text>
</g>
<!-- 1 -->
<g id="node4" class="node">
<title>1</title>
<ellipse fill="none" stroke="#000000" cx="150.5041" cy="-142.1957" rx="26.6198" ry="26.6198"/>
<text text-anchor="start" x="137.2834" y="-138.9957" font-family="Times,serif" font-size="14.00" fill="#000000">1:T</text>
<text text-anchor="start" x="156.7248" y="-138.9957" font-family="Times,serif" baseline-shift="super" font-size="14.00" fill="#000000">k</text>
</g>
<!-- 0&#45;&gt;1 -->
<g id="edge2" class="edge">
<title>0&#45;&gt;1</title>
<path fill="none" stroke="#000000" d="M74.6085,-98.4276C86.6185,-105.3536 103.4621,-115.0671 118.2313,-123.5843"/>
<polygon fill="#000000" stroke="#000000" points="116.6861,-126.7335 127.0973,-128.6973 120.1831,-120.6696 116.6861,-126.7335"/>
<text text-anchor="middle" x="99.6552" y="-118.9957" font-family="Times,serif" font-size="14.00" fill="#000000">T</text>
</g>
<!-- 3 -->
<g id="node5" class="node">
<title>3</title>
<ellipse fill="none" stroke="#000000" cx="150.5041" cy="-37.1957" rx="27.589" ry="27.589"/>
<text text-anchor="start" x="136.5041" y="-33.9957" font-family="Times,serif" font-size="14.00" fill="#000000">3:H</text>
<text text-anchor="start" x="157.5041" y="-33.9957" font-family="Times,serif" baseline-shift="super" font-size="14.00" fill="#000000">k</text>
</g>
<!-- 0&#45;&gt;3 -->
<g id="edge5" class="edge">
<title>0&#45;&gt;3</title>
<path fill="none" stroke="#000000" d="M74.6085,-80.138C86.363,-73.4872 102.7475,-64.2167 117.2858,-55.9909"/>
<polygon fill="#000000" stroke="#000000" points="119.0616,-59.0076 126.0414,-51.0368 115.6144,-52.9151 119.0616,-59.0076"/>
<text text-anchor="middle" x="99.6552" y="-70.9957" font-family="Times,serif" font-size="14.00" fill="#000000">H</text>
</g>
<!-- 1&#45;&gt;2 -->
<g id="edge4" class="edge">
<title>1&#45;&gt;2</title>
<path fill="none" stroke="#000000" d="M177.3983,-142.1957C188.3356,-142.1957 201.3139,-142.1957 213.7651,-142.1957"/>
<polygon fill="#000000" stroke="#000000" points="214.0439,-145.6958 224.0438,-142.1957 214.0438,-138.6958 214.0439,-145.6958"/>
<text text-anchor="middle" x="201.353" y="-144.9957" font-family="Times,serif" font-size="14.00" fill="#000000">H</text>
</g>
<!-- 1&#45;&gt;1 -->
<g id="edge3" class="edge">
<title>1&#45;&gt;1</title>
<path fill="none" stroke="#000000" d="M141.2115,-167.5313C140.5706,-178.0708 143.6682,-187.0049 150.5041,-187.0049 154.9902,-187.0049 157.8663,-183.1573 159.1324,-177.5334"/>
<polygon fill="#000000" stroke="#000000" points="162.6262,-177.7413 159.7967,-167.5313 155.6416,-177.2773 162.6262,-177.7413"/>
<text text-anchor="middle" x="150.5041" y="-189.8049" font-family="Times,serif" font-size="14.00" fill="#000000">T</text>
</g>
<!-- 3&#45;&gt;4 -->
<g id="edge7" class="edge">
<title>3&#45;&gt;4</title>
<path fill="none" stroke="#000000" d="M178.5393,-37.1957C189.3869,-37.1957 202.1072,-37.1957 214.2875,-37.1957"/>
<polygon fill="#000000" stroke="#000000" points="214.3389,-40.6958 224.3389,-37.1957 214.3388,-33.6958 214.3389,-40.6958"/>
<text text-anchor="middle" x="201.353" y="-39.9957" font-family="Times,serif" font-size="14.00" fill="#000000">T</text>
</g>
<!-- 3&#45;&gt;3 -->
<g id="edge6" class="edge">
<title>3&#45;&gt;3</title>
<path fill="none" stroke="#000000" d="M141.1863,-63.5486C140.6599,-74.118 143.7658,-82.9894 150.5041,-82.9894 154.9261,-82.9894 157.7838,-79.1688 159.0771,-73.555"/>
<polygon fill="#000000" stroke="#000000" points="162.5699,-73.7808 159.8219,-63.5486 155.5892,-73.2612 162.5699,-73.7808"/>
<text text-anchor="middle" x="150.5041" y="-85.7894" font-family="Times,serif" font-size="14.00" fill="#000000">H</text>
</g>
<!-- qi -->
<g id="node6" class="node">
<title>qi</title>
<ellipse fill="#000000" stroke="#000000" cx="1.8" cy="-89.1957" rx="1.8" ry="1.8"/>
</g>
<!-- qi&#45;&gt;0 -->
<g id="edge1" class="edge">
<title>qi&#45;&gt;0</title>
<path fill="none" stroke="#000000" d="M3.6898,-89.1957C8.0522,-89.1957 19.3107,-89.1957 30.5058,-89.1957"/>
<polygon fill="#000000" stroke="#000000" points="30.5696,-92.6958 40.5696,-89.1957 30.5696,-85.6958 30.5696,-92.6958"/>
</g>
</g>
</svg>
