<?xml version="1.0" encoding="UTF-8" standalone="no"?>
<!DOCTYPE svg PUBLIC "-//W3C//DTD SVG 1.1//EN"
 "http://www.w3.org/Graphics/SVG/1.1/DTD/svg11.dtd">
<!-- Generated by graphviz version 2.40.1 (20161225.0304)
 -->
<!-- Title: finite_state_machine Pages: 1 -->
<svg width="311pt" height="202pt"
 viewBox="0.00 0.00 310.82 202.00" xmlns="http://www.w3.org/2000/svg" xmlns:xlink="http://www.w3.org/1999/xlink">
<g id="graph0" class="graph" transform="scale(1 1) rotate(0) translate(4 198)">
<title>finite_state_machine</title>
<polygon fill="#ffffff" stroke="transparent" points="-4,4 -4,-198 306.8207,-198 306.8207,4 -4,4"/>
<!-- qi -->
<g id="node1" class="node">
<title>qi</title>
<ellipse fill="#000000" stroke="#000000" cx="1.8" cy="-82" rx="1.8" ry="1.8"/>
</g>
<!-- 0 -->
<g id="node4" class="node">
<title>0</title>
<ellipse fill="none" stroke="#000000" cx="67.6" cy="-82" rx="27" ry="27"/>
<text text-anchor="middle" x="67.6" y="-77.8" font-family="Times,serif" font-size="14.00" fill="#000000">0</text>
</g>
<!-- qi&#45;&gt;0 -->
<g id="edge1" class="edge">
<title>qi&#45;&gt;0</title>
<path fill="none" stroke="#000000" d="M3.6983,-82C7.9356,-82 18.702,-82 30.2151,-82"/>
<polygon fill="#000000" stroke="#000000" points="30.3795,-85.5001 40.3795,-82 30.3794,-78.5001 30.3795,-85.5001"/>
</g>
<!-- 2 -->
<g id="node2" class="node">
<title>2</title>
<ellipse fill="none" stroke="#000000" cx="271.8207" cy="-135" rx="27" ry="27"/>
<ellipse fill="none" stroke="#000000" cx="271.8207" cy="-135" rx="31" ry="31"/>
<text text-anchor="start" x="253.5448" y="-131.8" font-family="Times,serif" font-size="14.00" fill="#000000">2:T</text>
<text text-anchor="start" x="272.9862" y="-131.8" font-family="Times,serif" baseline-shift="super" font-size="14.00" fill="#000000">k</text>
<text text-anchor="start" x="279.9862" y="-131.8" font-family="Times,serif" font-size="14.00" fill="#000000">H</text>
</g>
<!-- 4 -->
<g id="node3" class="node">
<title>4</title>
<ellipse fill="none" stroke="#000000" cx="271.8207" cy="-31" rx="27" ry="27"/>
<ellipse fill="none" stroke="#000000" cx="271.8207" cy="-31" rx="31" ry="31"/>
<text text-anchor="start" x="253.5448" y="-27.8" font-family="Times,serif" font-size="14.00" fill="#000000">4:H</text>
<text text-anchor="start" x="274.5448" y="-27.8" font-family="Times,serif" baseline-shift="super" font-size="14.00" fill="#000000">k</text>
<text text-anchor="start" x="281.5448" y="-27.8" font-family="Times,serif" font-size="14.00" fill="#000000">T</text>
</g>
<!-- 1 -->
<g id="node5" class="node">
<title>1</title>
<ellipse fill="none" stroke="#000000" cx="167.7104" cy="-135" rx="27" ry="27"/>
<text text-anchor="start" x="154.4896" y="-131.8" font-family="Times,serif" font-size="14.00" fill="#000000">1:T</text>
<text text-anchor="start" x="173.9311" y="-131.8" font-family="Times,serif" baseline-shift="super" font-size="14.00" fill="#000000">k</text>
</g>
<!-- 0&#45;&gt;1 -->
<g id="edge2" class="edge">
<title>0&#45;&gt;1</title>
<path fill="none" stroke="#000000" d="M91.5789,-94.6948C104.4856,-101.5278 120.6015,-110.0598 134.6783,-117.5123"/>
<polygon fill="#000000" stroke="#000000" points="133.1046,-120.6394 143.5801,-122.2251 136.3799,-114.4529 133.1046,-120.6394"/>
<text text-anchor="middle" x="117.6552" y="-112.8" font-family="Times,serif" font-size="14.00" fill="#000000">T</text>
</g>
<!-- 3 -->
<g id="node6" class="node">
<title>3</title>
<ellipse fill="none" stroke="#000000" cx="167.7104" cy="-31" rx="27" ry="27"/>
<text text-anchor="start" x="153.7104" y="-27.8" font-family="Times,serif" font-size="14.00" fill="#000000">3:H</text>
<text text-anchor="start" x="174.7104" y="-27.8" font-family="Times,serif" baseline-shift="super" font-size="14.00" fill="#000000">k</text>
</g>
<!-- 0&#45;&gt;3 -->
<g id="edge5" class="edge">
<title>0&#45;&gt;3</title>
<path fill="none" stroke="#000000" d="M91.8339,-69.6543C104.5285,-63.1872 120.2744,-55.1657 134.1262,-48.109"/>
<polygon fill="#000000" stroke="#000000" points="136.031,-51.0667 143.3526,-43.4088 132.8535,-44.8295 136.031,-51.0667"/>
<text text-anchor="middle" x="117.6552" y="-60.8" font-family="Times,serif" font-size="14.00" fill="#000000">H</text>
</g>
<!-- 1&#45;&gt;2 -->
<g id="edge4" class="edge">
<title>1&#45;&gt;2</title>
<path fill="none" stroke="#000000" d="M194.7923,-135C205.6032,-135 218.2975,-135 230.2271,-135"/>
<polygon fill="#000000" stroke="#000000" points="230.4474,-138.5001 240.4474,-135 230.4474,-131.5001 230.4474,-138.5001"/>
<text text-anchor="middle" x="217.7655" y="-137.8" font-family="Times,serif" font-size="14.00" fill="#000000">H</text>
</g>
<!-- 1&#45;&gt;1 -->
<g id="edge3" class="edge">
<title>1&#45;&gt;1</title>
<path fill="none" stroke="#000000" d="M158.4177,-160.4435C157.7769,-171.0278 160.8744,-180 167.7104,-180 172.1964,-180 175.0725,-176.136 176.3386,-170.4881"/>
<polygon fill="#000000" stroke="#000000" points="179.8353,-170.6527 177.003,-160.4435 172.8505,-170.1907 179.8353,-170.6527"/>
<text text-anchor="middle" x="167.7104" y="-182.8" font-family="Times,serif" font-size="14.00" fill="#000000">T</text>
</g>
<!-- 3&#45;&gt;4 -->
<g id="edge7" class="edge">
<title>3&#45;&gt;4</title>
<path fill="none" stroke="#000000" d="M194.7923,-31C205.6032,-31 218.2975,-31 230.2271,-31"/>
<polygon fill="#000000" stroke="#000000" points="230.4474,-34.5001 240.4474,-31 230.4474,-27.5001 230.4474,-34.5001"/>
<text text-anchor="middle" x="217.7655" y="-33.8" font-family="Times,serif" font-size="14.00" fill="#000000">T</text>
</g>
<!-- 3&#45;&gt;3 -->
<g id="edge6" class="edge">
<title>3&#45;&gt;3</title>
<path fill="none" stroke="#000000" d="M158.4177,-56.4435C157.7769,-67.0278 160.8744,-76 167.7104,-76 172.1964,-76 175.0725,-72.136 176.3386,-66.4881"/>
<polygon fill="#000000" stroke="#000000" points="179.8353,-66.6527 177.003,-56.4435 172.8505,-66.1907 179.8353,-66.6527"/>
<text text-anchor="middle" x="167.7104" y="-78.8" font-family="Times,serif" font-size="14.00" fill="#000000">H</text>
</g>
</g>
</svg>
