<?xml version="1.0" encoding="UTF-8" standalone="no"?>
<!DOCTYPE svg PUBLIC "-//W3C//DTD SVG 1.1//EN"
 "http://www.w3.org/Graphics/SVG/1.1/DTD/svg11.dtd">
<!-- Generated by graphviz version 2.38.0 (20140413.2041)
 -->
<!-- Title: finite_state_machine Pages: 1 -->
<svg width="366pt" height="161pt"
 viewBox="0.00 0.00 365.76 161.04" xmlns="http://www.w3.org/2000/svg" xmlns:xlink="http://www.w3.org/1999/xlink">
<g id="graph0" class="graph" transform="scale(1 1) rotate(0) translate(4 157.045)">
<title>finite_state_machine</title>
<polygon fill="white" stroke="none" points="-4,4 -4,-157.045 361.758,-157.045 361.758,4 -4,4"/>
<!-- f -->
<g id="node1" class="node"><title>f</title>
<ellipse fill="none" stroke="black" cx="334.806" cy="-98.6821" rx="18.9116" ry="18.9116"/>
<ellipse fill="none" stroke="black" cx="334.806" cy="-98.6821" rx="22.9032" ry="22.9032"/>
<text text-anchor="middle" x="334.806" y="-95.0821" font-family="Times,serif" font-size="12.00">{f}</text>
</g>
<!-- q2f -->
<g id="node2" class="node"><title>q2f</title>
<ellipse fill="none" stroke="black" cx="148.963" cy="-123.682" rx="25.2449" ry="25.2449"/>
<ellipse fill="none" stroke="black" cx="148.963" cy="-123.682" rx="29.2263" ry="29.2263"/>
<text text-anchor="middle" x="148.963" y="-120.682" font-family="Times,serif" font-size="10.00">{q2, f}</text>
</g>
<!-- q2f&#45;&gt;f -->
<g id="edge6" class="edge"><title>q2f&#45;&gt;f</title>
<path fill="none" stroke="black" d="M178.285,-119.831C211.602,-115.3 266.783,-107.796 301.671,-103.052"/>
<polygon fill="black" stroke="black" points="302.362,-106.49 311.8,-101.675 301.419,-99.5541 302.362,-106.49"/>
<text text-anchor="middle" x="245.09" y="-116.482" font-family="Times,serif" font-size="14.00">b</text>
</g>
<!-- q2 -->
<g id="node5" class="node"><title>q2</title>
<ellipse fill="none" stroke="black" cx="245.09" cy="-36.6821" rx="23.5315" ry="23.5315"/>
<text text-anchor="middle" x="245.09" y="-33.0821" font-family="Times,serif" font-size="12.00">{q2}</text>
</g>
<!-- q2f&#45;&gt;q2 -->
<g id="edge7" class="edge"><title>q2f&#45;&gt;q2</title>
<path fill="none" stroke="black" d="M171.322,-103.94C185.641,-90.7058 204.539,-73.2388 219.487,-59.422"/>
<polygon fill="black" stroke="black" points="221.931,-61.9291 226.899,-52.5712 217.18,-56.7885 221.931,-61.9291"/>
<text text-anchor="middle" x="199.826" y="-83.4821" font-family="Times,serif" font-size="14.00">c</text>
</g>
<!-- S -->
<g id="node3" class="node"><title>S</title>
<ellipse fill="none" stroke="black" cx="58.6" cy="-52.6821" rx="18" ry="18"/>
<text text-anchor="middle" x="58.6" y="-48.4821" font-family="Times,serif" font-size="14.00">S</text>
</g>
<!-- S&#45;&gt;q2f -->
<g id="edge3" class="edge"><title>S&#45;&gt;q2f</title>
<path fill="none" stroke="black" d="M73.0204,-63.4654C84.7524,-72.8921 102.229,-86.9349 117.355,-99.0886"/>
<polygon fill="black" stroke="black" points="115.477,-102.07 125.465,-105.605 119.862,-96.613 115.477,-102.07"/>
<text text-anchor="middle" x="98.1" y="-89.4821" font-family="Times,serif" font-size="14.00">b</text>
</g>
<!-- q1 -->
<g id="node4" class="node"><title>q1</title>
<ellipse fill="none" stroke="black" cx="148.963" cy="-52.6821" rx="23.5315" ry="23.5315"/>
<text text-anchor="middle" x="148.963" y="-49.0821" font-family="Times,serif" font-size="12.00">{q1}</text>
</g>
<!-- S&#45;&gt;q1 -->
<g id="edge2" class="edge"><title>S&#45;&gt;q1</title>
<path fill="none" stroke="black" d="M76.6372,-52.6821C87.48,-52.6821 101.884,-52.6821 114.908,-52.6821"/>
<polygon fill="black" stroke="black" points="114.963,-56.1822 124.963,-52.6821 114.963,-49.1822 114.963,-56.1822"/>
<text text-anchor="middle" x="98.1" y="-55.4821" font-family="Times,serif" font-size="14.00">a</text>
</g>
<!-- S&#45;&gt;q2 -->
<g id="edge4" class="edge"><title>S&#45;&gt;q2</title>
<path fill="none" stroke="black" d="M71.4109,-39.4092C82.5372,-27.9867 100.337,-12.3285 119.6,-5.68207 144.273,2.83103 152.856,0.0200172 178.326,-5.68207 191.124,-8.54737 204.368,-14.1937 215.586,-19.8915"/>
<polygon fill="black" stroke="black" points="214.008,-23.0164 224.479,-24.6298 217.299,-16.8386 214.008,-23.0164"/>
<text text-anchor="middle" x="148.963" y="-8.48207" font-family="Times,serif" font-size="14.00">c</text>
</g>
<!-- q1&#45;&gt;q2 -->
<g id="edge5" class="edge"><title>q1&#45;&gt;q2</title>
<path fill="none" stroke="black" d="M172.748,-48.8089C184.31,-46.8436 198.564,-44.4207 211.284,-42.2586"/>
<polygon fill="black" stroke="black" points="212.242,-45.6459 221.514,-40.5196 211.069,-38.7449 212.242,-45.6459"/>
<text text-anchor="middle" x="199.826" y="-47.4821" font-family="Times,serif" font-size="14.00">b</text>
</g>
<!-- q2&#45;&gt;f -->
<g id="edge8" class="edge"><title>q2&#45;&gt;f</title>
<path fill="none" stroke="black" d="M265.123,-50.1351C277.441,-58.8413 293.653,-70.3005 307.233,-79.8993"/>
<polygon fill="black" stroke="black" points="305.523,-82.977 315.71,-85.8908 309.564,-77.2607 305.523,-82.977"/>
<text text-anchor="middle" x="290.355" y="-72.4821" font-family="Times,serif" font-size="14.00">b</text>
</g>
<!-- q2&#45;&gt;q2 -->
<g id="edge9" class="edge"><title>q2&#45;&gt;q2</title>
<path fill="none" stroke="black" d="M236.969,-59.4507C236.196,-69.6369 238.903,-78.4467 245.09,-78.4467 249.054,-78.4467 251.59,-74.8311 252.697,-69.5544"/>
<polygon fill="black" stroke="black" points="256.198,-69.6158 253.211,-59.4507 249.207,-69.2597 256.198,-69.6158"/>
<text text-anchor="middle" x="245.09" y="-81.2467" font-family="Times,serif" font-size="14.00">c</text>
</g>
<!-- qi -->
<g id="node6" class="node"><title>qi</title>
<ellipse fill="black" stroke="black" cx="1.8" cy="-52.6821" rx="1.8" ry="1.8"/>
</g>
<!-- qi&#45;&gt;S -->
<g id="edge1" class="edge"><title>qi&#45;&gt;S</title>
<path fill="none" stroke="black" d="M3.75116,-52.6821C7.11489,-52.6821 18.875,-52.6821 30.5503,-52.6821"/>
<polygon fill="black" stroke="black" points="30.5754,-56.1822 40.5754,-52.6821 30.5753,-49.1822 30.5754,-56.1822"/>
</g>
</g>
</svg>
