<?xml version="1.0" encoding="UTF-8" standalone="no"?>
<!DOCTYPE svg PUBLIC "-//W3C//DTD SVG 1.1//EN"
 "http://www.w3.org/Graphics/SVG/1.1/DTD/svg11.dtd">
<!-- Generated by graphviz version 2.40.1 (20161225.0304)
 -->
<!-- Title: finite_state_machine Pages: 1 -->
<svg width="554pt" height="98pt"
 viewBox="0.00 0.00 554.20 98.00" xmlns="http://www.w3.org/2000/svg" xmlns:xlink="http://www.w3.org/1999/xlink">
<g id="graph0" class="graph" transform="scale(1 1) rotate(0) translate(4 94)">
<title>finite_state_machine</title>
<polygon fill="#ffffff" stroke="transparent" points="-4,4 -4,-94 550.1967,-94 550.1967,4 -4,4"/>
<!-- qi -->
<g id="node1" class="node">
<title>qi</title>
<ellipse fill="#000000" stroke="#000000" cx="1.8" cy="-31" rx="1.8" ry="1.8"/>
</g>
<!-- 0 -->
<g id="node3" class="node">
<title>0</title>
<ellipse fill="none" stroke="#000000" cx="67.6" cy="-31" rx="27" ry="27"/>
<text text-anchor="middle" x="67.6" y="-26.8" font-family="Times,serif" font-size="14.00" fill="#000000">0</text>
</g>
<!-- qi&#45;&gt;0 -->
<g id="edge1" class="edge">
<title>qi&#45;&gt;0</title>
<path fill="none" stroke="#000000" d="M3.6983,-31C7.9356,-31 18.702,-31 30.2151,-31"/>
<polygon fill="#000000" stroke="#000000" points="30.3795,-34.5001 40.3795,-31 30.3794,-27.5001 30.3795,-34.5001"/>
</g>
<!-- m -->
<g id="node2" class="node">
<title>m</title>
<ellipse fill="none" stroke="#000000" cx="515.1967" cy="-31" rx="27" ry="27"/>
<ellipse fill="none" stroke="#000000" cx="515.1967" cy="-31" rx="31" ry="31"/>
<text text-anchor="start" x="509.7519" y="-27.8" font-family="Times,serif" font-style="italic" font-size="14.00" fill="#000000">m</text>
</g>
<!-- 1 -->
<g id="node4" class="node">
<title>1</title>
<ellipse fill="none" stroke="#000000" cx="178.6" cy="-31" rx="27" ry="27"/>
<text text-anchor="middle" x="178.6" y="-26.8" font-family="Times,serif" font-size="14.00" fill="#000000">1</text>
</g>
<!-- 0&#45;&gt;1 -->
<g id="edge2" class="edge">
<title>0&#45;&gt;1</title>
<path fill="none" stroke="#000000" d="M94.7537,-31C108.7294,-31 125.9832,-31 141.1989,-31"/>
<polygon fill="#000000" stroke="#000000" points="141.342,-34.5001 151.342,-31 141.3419,-27.5001 141.342,-34.5001"/>
<text text-anchor="start" x="112.6" y="-34.8" font-family="Times,serif" font-style="italic" font-size="14.00" fill="#000000">mX</text>
</g>
<!-- 1&#45;&gt;1 -->
<g id="edge3" class="edge">
<title>1&#45;&gt;1</title>
<path fill="none" stroke="#000000" d="M168.564,-56.4435C167.8719,-67.0278 171.2172,-76 178.6,-76 183.445,-76 186.5511,-72.136 187.9185,-66.4881"/>
<polygon fill="#000000" stroke="#000000" points="191.4145,-66.6675 188.636,-56.4435 184.4323,-66.1687 191.4145,-66.6675"/>
<text text-anchor="start" x="173.5448" y="-79.8" font-family="Times,serif" font-style="italic" font-size="14.00" fill="#000000">X</text>
</g>
<!-- 2 -->
<g id="node5" class="node">
<title>2</title>
<ellipse fill="none" stroke="#000000" cx="310.5863" cy="-31" rx="27" ry="27"/>
<text text-anchor="middle" x="310.5863" y="-26.8" font-family="Times,serif" font-size="14.00" fill="#000000">2</text>
</g>
<!-- 1&#45;&gt;2 -->
<g id="edge4" class="edge">
<title>1&#45;&gt;2</title>
<path fill="none" stroke="#000000" d="M205.6279,-31C225.0718,-31 251.5466,-31 273.0416,-31"/>
<polygon fill="#000000" stroke="#000000" points="273.141,-34.5001 283.141,-31 273.141,-27.5001 273.141,-34.5001"/>
<text text-anchor="start" x="223.6" y="-34.8" font-family="Times,serif" font-size="14.00" fill="#000000">(</text>
<text text-anchor="start" x="228.2621" y="-34.8" font-family="Times,serif" font-style="italic" font-size="14.00" fill="#000000">m</text>
<text text-anchor="start" x="239.1518" y="-34.8" font-family="Times,serif" font-size="14.00" fill="#000000">&#45;1)</text>
<text text-anchor="start" x="255.476" y="-34.8" font-family="Times,serif" font-style="italic" font-size="14.00" fill="#000000">X</text>
</g>
<!-- 2&#45;&gt;2 -->
<g id="edge5" class="edge">
<title>2&#45;&gt;2</title>
<path fill="none" stroke="#000000" d="M301.2937,-56.4435C300.6529,-67.0278 303.7504,-76 310.5863,-76 315.0724,-76 317.9485,-72.136 319.2146,-66.4881"/>
<polygon fill="#000000" stroke="#000000" points="322.7113,-66.6527 319.8789,-56.4435 315.7265,-66.1907 322.7113,-66.6527"/>
<text text-anchor="start" x="302.0312" y="-79.8" font-family="Times,serif" font-size="14.00" fill="#000000">2</text>
<text text-anchor="start" x="309.0312" y="-79.8" font-family="Times,serif" font-style="italic" font-size="14.00" fill="#000000">X</text>
</g>
<!-- m1 -->
<g id="node6" class="node">
<title>m1</title>
<ellipse fill="none" stroke="#000000" cx="411.0863" cy="-31" rx="27" ry="27"/>
<text text-anchor="start" x="399.8104" y="-27.8" font-family="Times,serif" font-style="italic" font-size="14.00" fill="#000000">m</text>
<text text-anchor="start" x="410.7001" y="-27.8" font-family="Times,serif" font-size="14.00" fill="#000000">&#45;1</text>
</g>
<!-- 2&#45;&gt;m1 -->
<g id="edge6" class="edge">
<title>2&#45;&gt;m1</title>
<path fill="none" stroke="#000000" d="M337.7831,-31C348.8436,-31 361.8065,-31 373.7305,-31"/>
<polygon fill="#000000" stroke="#000000" points="373.8679,-34.5001 383.8678,-31 373.8678,-27.5001 373.8679,-34.5001"/>
<text text-anchor="middle" x="360.8363" y="-33.8" font-family="Times,serif" font-size="14.00" fill="#000000">...</text>
</g>
<!-- m1&#45;&gt;m -->
<g id="edge8" class="edge">
<title>m1&#45;&gt;m</title>
<path fill="none" stroke="#000000" d="M438.1683,-31C448.9792,-31 461.6735,-31 473.6031,-31"/>
<polygon fill="#000000" stroke="#000000" points="473.8234,-34.5001 483.8234,-31 473.8233,-27.5001 473.8234,-34.5001"/>
<text text-anchor="start" x="456.0863" y="-34.8" font-family="Times,serif" font-style="italic" font-size="14.00" fill="#000000">X</text>
</g>
<!-- m1&#45;&gt;m1 -->
<g id="edge7" class="edge">
<title>m1&#45;&gt;m1</title>
<path fill="none" stroke="#000000" d="M401.7937,-56.4435C401.1529,-67.0278 404.2504,-76 411.0863,-76 415.5724,-76 418.4485,-72.136 419.7146,-66.4881"/>
<polygon fill="#000000" stroke="#000000" points="423.2113,-66.6527 420.3789,-56.4435 416.2265,-66.1907 423.2113,-66.6527"/>
<text text-anchor="start" x="390.0932" y="-79.8" font-family="Times,serif" font-size="14.00" fill="#000000">(</text>
<text text-anchor="start" x="394.7553" y="-79.8" font-family="Times,serif" font-style="italic" font-size="14.00" fill="#000000">m</text>
<text text-anchor="start" x="405.6449" y="-79.8" font-family="Times,serif" font-size="14.00" fill="#000000">&#45;1)</text>
<text text-anchor="start" x="421.9691" y="-79.8" font-family="Times,serif" font-style="italic" font-size="14.00" fill="#000000">X</text>
</g>
</g>
</svg>
