<?xml version="1.0" encoding="UTF-8" standalone="no"?>
<!DOCTYPE svg PUBLIC "-//W3C//DTD SVG 1.1//EN"
 "http://www.w3.org/Graphics/SVG/1.1/DTD/svg11.dtd">
<!-- Generated by graphviz version 2.38.0 (20140413.2041)
 -->
<!-- Title: finite_state_machine Pages: 1 -->
<svg width="477pt" height="89pt"
 viewBox="0.00 0.00 476.90 88.70" xmlns="http://www.w3.org/2000/svg" xmlns:xlink="http://www.w3.org/1999/xlink">
<g id="graph0" class="graph" transform="scale(1 1) rotate(0) translate(4 84.7045)">
<title>finite_state_machine</title>
<polygon fill="white" stroke="none" points="-4,4 -4,-84.7045 472.901,-84.7045 472.901,4 -4,4"/>
<!-- 0 -->
<g id="node1" class="node"><title>0</title>
<ellipse fill="none" stroke="black" cx="58.6" cy="-24.3522" rx="18" ry="18"/>
<text text-anchor="start" x="55.1" y="-20.1522" font-family="Times,serif" font-size="14.00">0</text>
</g>
<!-- 1 -->
<g id="node2" class="node"><title>1</title>
<ellipse fill="none" stroke="black" cx="151.6" cy="-24.3522" rx="18" ry="18"/>
<text text-anchor="start" x="148.1" y="-20.1522" font-family="Times,serif" font-size="14.00">1</text>
</g>
<!-- 0&#45;&gt;1 -->
<g id="edge2" class="edge"><title>0&#45;&gt;1</title>
<path fill="none" stroke="black" d="M76.7164,-24.3522C89.8082,-24.3522 108.12,-24.3522 123.237,-24.3522"/>
<polygon fill="black" stroke="black" points="123.56,-27.8523 133.56,-24.3522 123.56,-20.8523 123.56,-27.8523"/>
<text text-anchor="start" x="94.6" y="-28.1522" font-family="Times,serif" font-style="italic" font-size="14.00">mX</text>
</g>
<!-- 1&#45;&gt;1 -->
<g id="edge3" class="edge"><title>1&#45;&gt;1</title>
<path fill="none" stroke="black" d="M143.584,-40.6425C141.651,-50.7414 144.323,-60.3522 151.6,-60.3522 156.262,-60.3522 159.034,-56.4079 159.916,-50.9178"/>
<polygon fill="black" stroke="black" points="163.407,-50.5361 159.616,-40.6425 156.41,-50.7403 163.407,-50.5361"/>
<text text-anchor="start" x="146.545" y="-64.1522" font-family="Times,serif" font-style="italic" font-size="14.00">X</text>
</g>
<!-- 2 -->
<g id="node3" class="node"><title>2</title>
<ellipse fill="none" stroke="black" cx="265.586" cy="-24.3522" rx="18" ry="18"/>
<text text-anchor="start" x="262.086" y="-20.1522" font-family="Times,serif" font-size="14.00">2</text>
</g>
<!-- 1&#45;&gt;2 -->
<g id="edge4" class="edge"><title>1&#45;&gt;2</title>
<path fill="none" stroke="black" d="M169.608,-24.3522C187.532,-24.3522 216.037,-24.3522 237.148,-24.3522"/>
<polygon fill="black" stroke="black" points="237.418,-27.8523 247.418,-24.3522 237.418,-20.8523 237.418,-27.8523"/>
<text text-anchor="start" x="187.6" y="-28.1522" font-family="Times,serif" font-size="14.00">(</text>
<text text-anchor="start" x="192.262" y="-28.1522" font-family="Times,serif" font-style="italic" font-size="14.00">m</text>
<text text-anchor="start" x="203.152" y="-28.1522" font-family="Times,serif" font-size="14.00">&#45;1)</text>
<text text-anchor="start" x="219.476" y="-28.1522" font-family="Times,serif" font-style="italic" font-size="14.00">X</text>
</g>
<!-- 2&#45;&gt;2 -->
<g id="edge5" class="edge"><title>2&#45;&gt;2</title>
<path fill="none" stroke="black" d="M258.555,-41.0163C256.993,-50.9772 259.336,-60.3522 265.586,-60.3522 269.59,-60.3522 271.991,-56.5047 272.789,-51.1205"/>
<polygon fill="black" stroke="black" points="276.286,-50.9556 272.618,-41.0163 269.287,-51.0741 276.286,-50.9556"/>
<text text-anchor="start" x="257.031" y="-64.1522" font-family="Times,serif" font-size="14.00">2</text>
<text text-anchor="start" x="264.031" y="-64.1522" font-family="Times,serif" font-style="italic" font-size="14.00">X</text>
</g>
<!-- m1 -->
<g id="node4" class="node"><title>m1</title>
<ellipse fill="none" stroke="black" cx="354.439" cy="-24.3522" rx="24.2053" ry="24.2053"/>
<text text-anchor="start" x="343.163" y="-21.1522" font-family="Times,serif" font-style="italic" font-size="14.00">m</text>
<text text-anchor="start" x="354.052" y="-21.1522" font-family="Times,serif" font-size="14.00">&#45;1</text>
</g>
<!-- 2&#45;&gt;m1 -->
<g id="edge6" class="edge"><title>2&#45;&gt;m1</title>
<path fill="none" stroke="black" d="M283.746,-24.3522C294.096,-24.3522 307.636,-24.3522 320.026,-24.3522"/>
<polygon fill="black" stroke="black" points="320.067,-27.8523 330.067,-24.3522 320.067,-20.8523 320.067,-27.8523"/>
<text text-anchor="middle" x="306.836" y="-27.1522" font-family="Times,serif" font-size="14.00">...</text>
</g>
<!-- m1&#45;&gt;m1 -->
<g id="edge7" class="edge"><title>m1&#45;&gt;m1</title>
<path fill="none" stroke="black" d="M345.948,-47.4412C345.14,-57.7708 347.97,-66.7045 354.439,-66.7045 358.583,-66.7045 361.233,-63.0381 362.391,-57.6871"/>
<polygon fill="black" stroke="black" points="365.899,-57.611 362.929,-47.4412 358.909,-57.2439 365.899,-57.611"/>
<text text-anchor="start" x="333.445" y="-70.5045" font-family="Times,serif" font-size="14.00">(</text>
<text text-anchor="start" x="338.107" y="-70.5045" font-family="Times,serif" font-style="italic" font-size="14.00">m</text>
<text text-anchor="start" x="348.997" y="-70.5045" font-family="Times,serif" font-size="14.00">&#45;1)</text>
<text text-anchor="start" x="365.321" y="-70.5045" font-family="Times,serif" font-style="italic" font-size="14.00">X</text>
</g>
<!-- m -->
<g id="node5" class="node"><title>m</title>
<ellipse fill="none" stroke="black" cx="446.901" cy="-24.3522" rx="18" ry="18"/>
<ellipse fill="none" stroke="black" cx="446.901" cy="-24.3522" rx="22" ry="22"/>
<text text-anchor="start" x="441.456" y="-21.1522" font-family="Times,serif" font-style="italic" font-size="14.00">m</text>
</g>
<!-- m1&#45;&gt;m -->
<g id="edge8" class="edge"><title>m1&#45;&gt;m</title>
<path fill="none" stroke="black" d="M379.207,-24.3522C390.028,-24.3522 402.983,-24.3522 414.585,-24.3522"/>
<polygon fill="black" stroke="black" points="414.76,-27.8523 424.759,-24.3522 414.759,-20.8523 414.76,-27.8523"/>
<text text-anchor="start" x="396.791" y="-28.1522" font-family="Times,serif" font-style="italic" font-size="14.00">X</text>
</g>
<!-- qi -->
<g id="node6" class="node"><title>qi</title>
<ellipse fill="black" stroke="black" cx="1.8" cy="-24.3522" rx="1.8" ry="1.8"/>
</g>
<!-- qi&#45;&gt;0 -->
<g id="edge1" class="edge"><title>qi&#45;&gt;0</title>
<path fill="none" stroke="black" d="M3.75116,-24.3522C7.11489,-24.3522 18.875,-24.3522 30.5503,-24.3522"/>
<polygon fill="black" stroke="black" points="30.5754,-27.8523 40.5754,-24.3522 30.5753,-20.8523 30.5754,-27.8523"/>
</g>
</g>
</svg>
